<svg xmlns="http://www.w3.org/2000/svg" xmlns:xlink="http://www.w3.org/1999/xlink" viewBox="0 0 800 560" role="img"><title>In the kitchen: cooking with a view of a lake and green hills</title><desc>A cook in glasses leans over a steaming pot, smelling the food, beside jars of spices; through the window are potted plants, a lake, green hills and snowy peaks.</desc><defs>
<filter id="wc" x="-5%" y="-5%" width="110%" height="110%"><feTurbulence type="fractalNoise" baseFrequency=".028" numOctaves="3" seed="3"/><feDisplacementMap in="SourceGraphic" scale="5" xChannelSelector="R" yChannelSelector="G"/></filter>
<filter id="sh" x="-30%" y="-30%" width="160%" height="170%"><feDropShadow dx="2" dy="6" stdDeviation="5" flood-color="#101713" flood-opacity=".22"/></filter>
<filter id="shs" x="-30%" y="-30%" width="160%" height="170%"><feDropShadow dx="1" dy="3" stdDeviation="2.5" flood-color="#101713" flood-opacity=".25"/></filter>
<filter id="glow" x="-50%" y="-50%" width="200%" height="200%"><feGaussianBlur stdDeviation="14"/></filter>
<filter id="blur2"><feGaussianBlur stdDeviation="2"/></filter>
<filter id="grain" x="0" y="0" width="100%" height="100%"><feTurbulence type="fractalNoise" baseFrequency=".85" numOctaves="2" stitchTiles="stitch"/><feColorMatrix values="0 0 0 0 .35  0 0 0 0 .32  0 0 0 0 .26  0 0 0 .13 0"/></filter><linearGradient id="wall81" x1="0" y1="0" x2="0" y2="1"><stop offset="0" stop-color="#EEF4EF"/><stop offset="1" stop-color="#DCE8DF"/></linearGradient><linearGradient id="sk382" x1="0" y1="0" x2="0" y2="1"><stop offset="0" stop-color="#CBE3F2"/><stop offset="1" stop-color="#FCEBD2"/></linearGradient><clipPath id="kw"><rect x="250" y="50" width="330" height="230" rx="10"/></clipPath><radialGradient id="sun83" cx="0.4" cy="0.35" r="0.7"><stop offset="0" stop-color="#f2ddb5"/><stop offset="1" stop-color="#E9C27A"/></radialGradient><linearGradient id="v84" x1="0" y1="0" x2="1" y2="0"><stop offset="0" stop-color="#bbcad4"/><stop offset="0.55" stop-color="#A8BCC9"/><stop offset="1" stop-color="#83929c"/></linearGradient><linearGradient id="v85" x1="0" y1="0" x2="1" y2="0"><stop offset="0" stop-color="#bbcad4"/><stop offset="0.55" stop-color="#A8BCC9"/><stop offset="1" stop-color="#83929c"/></linearGradient><linearGradient id="v86" x1="0" y1="0" x2="1" y2="0"><stop offset="0" stop-color="#bbcad4"/><stop offset="0.55" stop-color="#A8BCC9"/><stop offset="1" stop-color="#83929c"/></linearGradient><linearGradient id="v87" x1="0" y1="0" x2="1" y2="0"><stop offset="0" stop-color="#bbcad4"/><stop offset="0.55" stop-color="#A8BCC9"/><stop offset="1" stop-color="#83929c"/></linearGradient><linearGradient id="v88" x1="0" y1="0" x2="1" y2="0"><stop offset="0" stop-color="#bbcad4"/><stop offset="0.55" stop-color="#A8BCC9"/><stop offset="1" stop-color="#83929c"/></linearGradient><linearGradient id="v89" x1="0" y1="0" x2="1" y2="0"><stop offset="0" stop-color="#bbcad4"/><stop offset="0.55" stop-color="#A8BCC9"/><stop offset="1" stop-color="#83929c"/></linearGradient><linearGradient id="lake90" x1="0" y1="0" x2="0" y2="1"><stop offset="0" stop-color="#9CC3DE"/><stop offset="1" stop-color="#CFE3EF"/></linearGradient><linearGradient id="v91" x1="0" y1="0" x2="0.35" y2="1"><stop offset="0" stop-color="#8ebfa2"/><stop offset="0.55" stop-color="#6FAE88"/><stop offset="1" stop-color="#56876a"/></linearGradient><linearGradient id="v92" x1="0" y1="0" x2="0.35" y2="1"><stop offset="0" stop-color="#69a583"/><stop offset="0.55" stop-color="#3F8C61"/><stop offset="1" stop-color="#316d4b"/></linearGradient><linearGradient id="v93" x1="0" y1="0" x2="0.35" y2="1"><stop offset="0" stop-color="#db6e58"/><stop offset="0.55" stop-color="#D2462A"/><stop offset="1" stop-color="#a33620"/></linearGradient><linearGradient id="v94" x1="0" y1="0" x2="0.35" y2="1"><stop offset="0" stop-color="#c69650"/><stop offset="0.55" stop-color="#B7791F"/><stop offset="1" stop-color="#8e5e18"/></linearGradient><linearGradient id="v95" x1="0" y1="0" x2="0.35" y2="1"><stop offset="0" stop-color="#db6e58"/><stop offset="0.55" stop-color="#D2462A"/><stop offset="1" stop-color="#a33620"/></linearGradient><linearGradient id="v96" x1="0" y1="0" x2="0.35" y2="1"><stop offset="0" stop-color="#c8a481"/><stop offset="0.55" stop-color="#B98B5E"/><stop offset="1" stop-color="#906c49"/></linearGradient><linearGradient id="v97" x1="0" y1="0" x2="1" y2="0"><stop offset="0" stop-color="#a4adb4"/><stop offset="0.55" stop-color="#8B97A0"/><stop offset="1" stop-color="#6c757c"/></linearGradient><linearGradient id="v98" x1="0" y1="0" x2="0.35" y2="1"><stop offset="0" stop-color="#edcf97"/><stop offset="0.55" stop-color="#E9C27A"/><stop offset="1" stop-color="#b5975f"/></linearGradient><linearGradient id="v99" x1="0" y1="0" x2="0.35" y2="1"><stop offset="0" stop-color="#db6e58"/><stop offset="0.55" stop-color="#D2462A"/><stop offset="1" stop-color="#a33620"/></linearGradient><linearGradient id="v100" x1="0" y1="0" x2="0.35" y2="1"><stop offset="0" stop-color="#50a37a"/><stop offset="0.55" stop-color="#1F8A55"/><stop offset="1" stop-color="#186b42"/></linearGradient><linearGradient id="v101" x1="0" y1="0" x2="0.35" y2="1"><stop offset="0" stop-color="#f6f6f4"/><stop offset="0.55" stop-color="#F4F4F2"/><stop offset="1" stop-color="#bebebc"/></linearGradient><linearGradient id="v102" x1="0" y1="0" x2="0.35" y2="1"><stop offset="0" stop-color="#69716c"/><stop offset="0.55" stop-color="#3F4943"/><stop offset="1" stop-color="#313834"/></linearGradient><radialGradient id="sk103" cx="0.35" cy="0.3" r="0.8"><stop offset="0" stop-color="#c99b7d"/><stop offset="1" stop-color="#B77A52"/></radialGradient></defs><style>.steam{animation:steam 3s ease-in-out infinite}.s1{animation-delay:1s}.s2{animation-delay:2s}@keyframes steam{0%{opacity:0;transform:translateY(20px)}40%{opacity:.85}100%{opacity:0;transform:translateY(-24px)}}.aroma{animation:aroma 3s ease-in-out infinite}@keyframes aroma{0%,100%{opacity:.2}50%{opacity:.9}}
@media (prefers-reduced-motion: reduce) { * { animation: none !important; } }</style><rect width="800" height="560" fill="url(#wall81)"/><g clip-path="url(#kw)"><rect x="250" y="50" width="330" height="230" fill="url(#sk382)"/><circle cx="490" cy="110" r="41.8" fill="#E9C27A" opacity=".35" filter="url(#glow)"/><circle cx="490" cy="110" r="22" fill="url(#sun83)"/><g opacity=".85"><path d="M-17 200 L72 134 L92 120 L119 137 L201 200 Z" fill="url(#v84)" filter="url(#wc)"/><path d="M59 150 L79 132 L92 120 L114 136 L129 152 L103 145 L86 152 Z" fill="#fff" opacity=".9"/><path d="M92 120 L119 137 L201 200 L103 200 Z" fill="#101713" opacity=".08"/><path d="M59 200 L124 146 L139 135 L159 149 L218 200 Z" fill="url(#v85)" filter="url(#wc)"/><path d="M115 160 L129 145 L139 135 L155 148 L166 161 L147 156 L135 161 Z" fill="#fff" opacity=".9"/><path d="M139 135 L159 149 L218 200 L147 200 Z" fill="#101713" opacity=".08"/><path d="M329 200 L371 167 L381 160 L394 169 L432 200 Z" fill="url(#v86)" filter="url(#wc)"/><path d="M365 175 L375 166 L381 160 L391 168 L398 176 L386 173 L378 176 Z" fill="#fff" opacity=".9"/><path d="M381 160 L394 169 L432 200 L386 200 Z" fill="#101713" opacity=".08"/><path d="M446 200 L510 143 L524 131 L544 146 L603 200 Z" fill="url(#v87)" filter="url(#wc)"/><path d="M501 157 L515 142 L524 131 L540 145 L551 158 L532 153 L520 158 Z" fill="#fff" opacity=".9"/><path d="M524 131 L544 146 L603 200 L532 200 Z" fill="#101713" opacity=".08"/><path d="M478 200 L557 135 L575 120 L599 138 L671 200 Z" fill="url(#v88)" filter="url(#wc)"/><path d="M546 151 L563 133 L575 120 L594 136 L608 152 L584 146 L570 152 Z" fill="#fff" opacity=".9"/><path d="M575 120 L599 138 L671 200 L584 200 Z" fill="#101713" opacity=".08"/><path d="M611 200 L659 158 L669 148 L684 160 L727 200 Z" fill="url(#v89)" filter="url(#wc)"/><path d="M652 168 L662 157 L669 148 L681 159 L689 169 L675 165 L666 169 Z" fill="#fff" opacity=".9"/><path d="M669 148 L684 160 L727 200 L675 200 Z" fill="#101713" opacity=".08"/></g><rect x="250" y="200" width="330" height="40" fill="url(#lake90)"/><path d="M0 239.7 L13.3 239.4 L26.7 238.1 L40.0 236.4 L53.3 235.4 L66.7 235.2 L80.0 235.8 L93.3 237.0 L106.7 237.7 L120.0 238.1 L133.3 238.2 L146.7 237.8 L160.0 237.6 L173.3 238.2 L186.7 239.4 L200.0 240.8 L213.3 241.3 L226.7 241.2 L240.0 240.3 L253.3 238.7 L266.7 237.3 L280.0 236.5 L293.3 236.5 L306.7 237.2 L320.0 238.4 L333.3 239.2 L346.7 239.1 L360.0 239.0 L373.3 238.8 L386.7 238.9 L400.0 239.5 L413.3 240.7 L426.7 241.5 L440.0 241.4 L453.3 240.4 L466.7 238.1 L480.0 235.5 L493.3 233.3 L506.7 231.7 L520.0 230.9 L533.3 230.8 L546.7 230.8 L560.0 230.4 L573.3 229.8 L586.7 229.2 L600.0 229.0 L613.3 229.7 L626.7 231.3 L640.0 233.5 L653.3 235.2 L666.7 236.0 L680.0 235.5 L693.3 234.4 L706.7 233.2 L720.0 231.9 L733.3 231.3 L746.7 231.0 L760.0 231.0 L773.3 230.7 L786.7 229.7 L800.0 228.6 L800 290 L0 290 Z" fill="url(#v91)"/><path d="M0 248.5 L13.3 248.2 L26.7 248.9 L40.0 250.4 L53.3 251.9 L66.7 253.3 L80.0 254.2 L93.3 254.0 L106.7 253.2 L120.0 252.3 L133.3 251.7 L146.7 251.5 L160.0 252.4 L173.3 253.8 L186.7 255.3 L200.0 256.8 L213.3 257.7 L226.7 257.9 L240.0 257.7 L253.3 257.1 L266.7 256.8 L280.0 257.2 L293.3 257.7 L306.7 258.6 L320.0 259.5 L333.3 259.7 L346.7 259.0 L360.0 257.8 L373.3 256.0 L386.7 254.3 L400.0 253.1 L413.3 252.9 L426.7 253.4 L440.0 254.6 L453.3 255.9 L466.7 256.9 L480.0 257.2 L493.3 257.0 L506.7 255.9 L520.0 254.6 L533.3 253.4 L546.7 252.8 L560.0 252.7 L573.3 253.0 L586.7 253.1 L600.0 253.1 L613.3 252.4 L626.7 251.3 L640.0 250.2 L653.3 249.3 L666.7 249.1 L680.0 249.8 L693.3 251.5 L706.7 253.5 L720.0 255.4 L733.3 256.7 L746.7 257.5 L760.0 257.3 L773.3 256.8 L786.7 256.0 L800.0 256.0 L800 290 L0 290 Z" fill="url(#v92)"/><path d="M303.7 110.0 q3.1 -4.2 6.3 0 q3.1 -4.2 6.3 0" fill="none" stroke="#6E7A72" stroke-width="1.3" stroke-linecap="round"/><path d="M322.7 117.0 q2.8 -3.7 5.5 0 q2.8 -3.7 5.5 0" fill="none" stroke="#6E7A72" stroke-width="1.3" stroke-linecap="round"/><path d="M341.6 110.0 q2.4 -3.2 4.8 0 q2.4 -3.2 4.8 0" fill="none" stroke="#6E7A72" stroke-width="1.3" stroke-linecap="round"/></g><rect x="242" y="42" width="346" height="246" rx="14" fill="none" stroke="#fff" stroke-width="14" filter="url(#sh)"/><path d="M415.0 50 V280 M250 165.0 H580" stroke="#fff" stroke-width="7"/><g transform="translate(280 286)" filter="url(#shs)"><path d="M-14 -22 L14 -22 L10 0 L-10 0 Z" fill="url(#v93)"/><path d="M0 -22 C -10 -40 -20 -44 -18 -52 M0 -22 C 6 -44 16 -48 18 -58 M0 -22 C 0 -40 -4 -52 2 -62" stroke="#1F8A55" stroke-width="5" fill="none" stroke-linecap="round"/></g><g transform="translate(340 286)" filter="url(#shs)"><path d="M-14 -22 L14 -22 L10 0 L-10 0 Z" fill="url(#v94)"/><path d="M0 -22 C -10 -40 -20 -44 -18 -52 M0 -22 C 6 -44 16 -48 18 -58 M0 -22 C 0 -40 -4 -52 2 -62" stroke="#1F8A55" stroke-width="5" fill="none" stroke-linecap="round"/></g><g transform="translate(520 286)" filter="url(#shs)"><path d="M-14 -22 L14 -22 L10 0 L-10 0 Z" fill="url(#v95)"/><path d="M0 -22 C -10 -40 -20 -44 -18 -52 M0 -22 C 6 -44 16 -48 18 -58 M0 -22 C 0 -40 -4 -52 2 -62" stroke="#1F8A55" stroke-width="5" fill="none" stroke-linecap="round"/></g><rect x="0" y="400" width="800" height="160" fill="url(#v96)"/><rect x="0" y="392" width="800" height="14" fill="#fff" filter="url(#shs)"/><rect x="420" y="372" width="170" height="24" rx="6" fill="#3F4943"/><g transform="translate(505 372)" filter="url(#sh)"><path d="M-54 -58 L54 -58 L48 0 L-48 0 Z" fill="url(#v97)"/><rect x="-60" y="-66" width="120" height="10" rx="5" fill="#6E7A83"/><path d="M-66 -40 H-54 M54 -40 H66" stroke="#6E7A83" stroke-width="6" stroke-linecap="round"/></g><path class="steam s0" d="M480 300 C 470 280 492 262 480 240 C 470 222 488 206 480 190" stroke="#fff" stroke-width="5" fill="none" stroke-linecap="round" opacity=".85"/><path class="steam s1" d="M504 300 C 494 280 516 262 504 240 C 494 222 512 206 504 190" stroke="#fff" stroke-width="5" fill="none" stroke-linecap="round" opacity=".85"/><path class="steam s2" d="M528 300 C 518 280 540 262 528 240 C 518 222 536 206 528 190" stroke="#fff" stroke-width="5" fill="none" stroke-linecap="round" opacity=".85"/><g transform="translate(70 392)" filter="url(#shs)"><rect x="-18" y="-50" width="36" height="50" rx="8" fill="#fff" opacity=".7"/><rect x="-14" y="-34" width="28" height="30" rx="5" fill="url(#v98)"/><rect x="-19" y="-58" width="38" height="10" rx="3" fill="#3F4943"/></g><g transform="translate(118 392)" filter="url(#shs)"><rect x="-18" y="-50" width="36" height="50" rx="8" fill="#fff" opacity=".7"/><rect x="-14" y="-34" width="28" height="30" rx="5" fill="url(#v99)"/><rect x="-19" y="-58" width="38" height="10" rx="3" fill="#3F4943"/></g><g transform="translate(166 392)" filter="url(#shs)"><rect x="-18" y="-50" width="36" height="50" rx="8" fill="#fff" opacity=".7"/><rect x="-14" y="-34" width="28" height="30" rx="5" fill="url(#v100)"/><rect x="-19" y="-58" width="38" height="10" rx="3" fill="#3F4943"/></g><g transform="translate(330 548) scale(1.7)" filter="url(#shs)"><ellipse cx="0" cy="0" rx="26" ry="5" fill="#101713" opacity=".16"/><rect x="-15" y="-46" width="12" height="46" rx="6" fill="url(#v102)"/><rect x="3" y="-46" width="12" height="46" rx="6" fill="url(#v102)"/><ellipse cx="-9" cy="-1" rx="9" ry="4" fill="#101713"/><ellipse cx="9" cy="-1" rx="9" ry="4" fill="#101713"/><path d="M-22 -92 Q0 -100 22 -92 L19 -42 Q0 -36 -19 -42 Z" fill="url(#v101)"/><g transform="translate(0 -112)"><circle cx="0" cy="0" r="16" fill="url(#sk103)"/><path d="M-16 -2 C -16 -20 16 -20 16 -2 C 12 -10 -12 -10 -16 -2 Z" fill="#241A14"/><circle cx="-5.5" cy="-1" r="1.7" fill="#101713"/><circle cx="5.5" cy="-1" r="1.7" fill="#101713"/><path d="M-5 6 Q0 10 5 6" fill="none" stroke="#101713" stroke-width="1.6" stroke-linecap="round"/><circle cx="-9" cy="4" r="2.6" fill="#E57B6A" opacity=".35"/><circle cx="9" cy="4" r="2.6" fill="#E57B6A" opacity=".35"/><path d="M-13 4 C -12 16 12 16 13 4 C 8 9 -8 9 -13 4 Z" fill="#241A14"/><rect x="-11" y="-5" width="9" height="7" rx="2" fill="none" stroke="#101713" stroke-width="1.8"/><rect x="2" y="-5" width="9" height="7" rx="2" fill="none" stroke="#101713" stroke-width="1.8"/><path d="M-2 -2 H2" stroke="#101713" stroke-width="1.6"/></g><path d="M-20 -86 L-26 -46" stroke="#e0e0de" stroke-width="10" stroke-linecap="round"/><circle cx="-26" cy="-46" r="5.5" fill="#B77A52"/><path d="M20 -86 L40 -68" stroke="#e0e0de" stroke-width="10" stroke-linecap="round"/><circle cx="40" cy="-68" r="5.5" fill="#B77A52"/></g><path d="M398 430 L476 346" stroke="#8A6A4A" stroke-width="5" stroke-linecap="round"/><rect width="800" height="560" filter="url(#grain)" style="mix-blend-mode:multiply" pointer-events="none"/></svg>
